<svg version="1.1" preserveAspectRatio="none" xmlns="http://www.w3.org/2000/svg" width="500" height="500" viewBox="0 0 500 500"><rect width="100%" height="100%" fill="#FFFFFF" fill-opacity="1"/><svg viewBox="67.7578 227.6528 455.7253 104" width="333" height="75.99314762643198" x="83.5px" y="212.0034px" xmlns="http://www.w3.org/2000/svg" xmlns:xlink="http://www.w3.org/1999/xlink" preserveAspectRatio="none"><defs></defs><style>.companyName {fill:#4D4D4D;fill-opacity:1;}.icon1 {fill:#FF834F;fill-opacity:1;}.icon2 {fill:#FF4949;fill-opacity:1;}.icon3 {fill:#FFAE78;fill-opacity:1;}.icon3-str {stroke:#FFAE78;stroke-opacity:1;}.shapeStroke-str {stroke:#313131;stroke-opacity:1;}</style><g opacity="1" transform="rotate(0 67.7578 239.6528)">
<svg width="72.5582" height="80" x="67.7578" y="239.6528" version="1.1" preserveAspectRatio="none" viewBox="11 7 78 86">
  <g transform="matrix(1 0 0 1 0 0)" class="icon1"><g transform="translate(0,-952.36218)"><path style="text-indent:0;text-transform:none;direction:ltr;block-progression:tb;baseline-shift:baseline;color:#000000;enable-background:accumulate;" d="m 50,959.36217 c -12.108698,0 -21.80954,2.0685 -28.625,7.4062 C 14.55954,972.10627 11,980.65019 11,992.36219 c 0,11.94011 5.414653,24.94891 12.875,35.15621 7.460347,10.2074 16.943488,17.8438 26.125,17.8438 9.18151,0 18.66465,-7.6363 26.125,-17.8438 C 83.58535,1017.3111 89,1004.3023 89,992.36219 c 0,-11.712 -3.55954,-20.25592 -10.375,-25.59382 -6.81546,-5.3377 -16.5163,-7.4062 -28.625,-7.4062 z m 0,4 c 11.63953,0 20.44002,2.0612 26.1875,6.5625 5.74748,4.5013 8.8125,11.50592 8.8125,22.43752 0,10.70361 -5.08535,23.18081 -12.125,32.81251 -7.03965,9.6317 -16.05651,16.1875 -22.875,16.1875 -6.818488,0 -15.835347,-6.5558 -22.875,-16.1875 C 20.085347,1015.543 15,1003.0658 15,992.36219 c 0,-10.9316 3.065017,-17.93622 8.8125,-22.43752 5.747483,-4.5013 14.547968,-6.5625 26.1875,-6.5625 z m -16.4375,15.25002 c -4.189455,-0.073 -8.532839,1.9859 -11.5625,7.7188 10.88205,-9.0717 16.81342,1.0074 19.78125,4.0312 2.96783,1.008 4.95803,-1.0073 3.96875,-4.0312 -1.669404,-3.9689 -6.801057,-7.6247 -12.1875,-7.7188 z m 32.875,0 c -5.38644,0.094 -10.5181,3.7499 -12.1875,7.7188 -0.98928,3.0239 1.00092,5.0392 3.96875,4.0312 2.96783,-3.0238 8.8992,-13.1029 19.78125,-4.0312 -3.02966,-5.7329 -7.37304,-7.792 -11.5625,-7.7188 z m -35.03125,11.75 c -2.404296,0.107 -4.906248,1.0707 -7.40625,3.2188 5.71429,3.6822 10.28571,3.6822 16,0 -2.571429,-2.0713 -5.502512,-3.3563 -8.59375,-3.2188 z m 36.15625,0 c -2.71429,0.1534 -5.27679,1.3776 -7.5625,3.2188 5.71429,3.6822 10.28571,3.6822 16,0 -2.85715,-2.4549 -5.72321,-3.3722 -8.4375,-3.2188 z M 23,1009.3622 c 17,28.9206 36.95581,28.8764 54,0 -17,14.8958 -37,14.9583 -54,0 z" marker="none" visibility="visible" display="inline" overflow="visible"></path></g></g>
</svg>
</g><g opacity="1" transform="rotate(0 178.316 254.6528)">
<svg width="345.1671" height="50" x="178.316" y="254.6528" version="1.1" preserveAspectRatio="none" viewBox="2.88 -31.48 219.52 31.8">
  <g transform="matrix(1 0 0 1 0 0)" class="companyName"><path id="id-D6z1nYkh8" d="M30.44-21.84Q34.48-21.84 36.86-19.46Q39.24-17.08 39.24-12.32L39.24-12.32L39.24 0L33 0L33-11.36Q33-13.92 31.94-15.18Q30.88-16.44 28.92-16.44L28.92-16.44Q26.72-16.44 25.44-15.02Q24.16-13.60 24.16-10.80L24.16-10.80L24.16 0L17.92 0L17.92-11.36Q17.92-16.44 13.84-16.44L13.84-16.44Q11.68-16.44 10.40-15.02Q9.12-13.60 9.12-10.80L9.12-10.80L9.12 0L2.88 0L2.88-21.52L8.84-21.52L8.84-19.04Q10.04-20.40 11.78-21.12Q13.52-21.84 15.60-21.84L15.60-21.84Q17.88-21.84 19.72-20.94Q21.56-20.04 22.68-18.32L22.68-18.32Q24-20 26.02-20.92Q28.04-21.84 30.44-21.84L30.44-21.84Z M66.16-10.68Q66.16-10.56 66.04-9L66.04-9L49.76-9Q50.20-7 51.84-5.84Q53.48-4.68 55.92-4.68L55.92-4.68Q57.60-4.68 58.90-5.18Q60.20-5.68 61.32-6.76L61.32-6.76L64.64-3.16Q61.60 0.32 55.76 0.32L55.76 0.32Q52.12 0.32 49.32-1.10Q46.52-2.52 45-5.04Q43.48-7.56 43.48-10.76L43.48-10.76Q43.48-13.92 44.98-16.46Q46.48-19 49.10-20.42Q51.72-21.84 54.96-21.84L54.96-21.84Q58.12-21.84 60.68-20.48Q63.24-19.12 64.70-16.58Q66.16-14.04 66.16-10.68L66.16-10.68ZM55-17.12Q52.88-17.12 51.44-15.92Q50-14.72 49.68-12.64L49.68-12.64L60.28-12.64Q59.96-14.68 58.52-15.90Q57.08-17.12 55-17.12L55-17.12Z M86-29.68L92.24-29.68L92.24 0L86.28 0L86.28-2.48Q83.96 0.32 79.56 0.32L79.56 0.32Q76.52 0.32 74.06-1.04Q71.60-2.40 70.20-4.92Q68.80-7.44 68.80-10.76L68.80-10.76Q68.80-14.08 70.20-16.60Q71.60-19.12 74.06-20.48Q76.52-21.84 79.56-21.84L79.56-21.84Q83.68-21.84 86-19.24L86-19.24L86-29.68ZM80.64-4.80Q83-4.80 84.56-6.42Q86.12-8.04 86.12-10.76L86.12-10.76Q86.12-13.48 84.56-15.10Q83-16.72 80.64-16.72L80.64-16.72Q78.24-16.72 76.68-15.10Q75.12-13.48 75.12-10.76L75.12-10.76Q75.12-8.04 76.68-6.42Q78.24-4.80 80.64-4.80L80.64-4.80Z M98 0L98-21.52L104.24-21.52L104.24 0L98 0ZM101.12-24.52Q99.40-24.52 98.32-25.52Q97.24-26.52 97.24-28L97.24-28Q97.24-29.48 98.32-30.48Q99.40-31.48 101.12-31.48L101.12-31.48Q102.84-31.48 103.92-30.52Q105-29.56 105-28.12L105-28.12Q105-26.56 103.92-25.54Q102.84-24.52 101.12-24.52L101.12-24.52Z M118.72-21.84Q123.72-21.84 126.40-19.46Q129.08-17.08 129.08-12.28L129.08-12.28L129.08 0L123.24 0L123.24-2.68Q121.48 0.32 116.68 0.32L116.68 0.32Q114.20 0.32 112.38-0.52Q110.56-1.36 109.60-2.84Q108.64-4.32 108.64-6.20L108.64-6.20Q108.64-9.20 110.90-10.92Q113.16-12.64 117.88-12.64L117.88-12.64L122.84-12.64Q122.84-14.68 121.60-15.78Q120.36-16.88 117.88-16.88L117.88-16.88Q116.16-16.88 114.50-16.34Q112.84-15.80 111.68-14.88L111.68-14.88L109.44-19.24Q111.20-20.48 113.66-21.16Q116.12-21.84 118.72-21.84L118.72-21.84ZM118.24-3.88Q119.84-3.88 121.08-4.62Q122.32-5.36 122.84-6.80L122.84-6.80L122.84-9L118.56-9Q114.72-9 114.72-6.48L114.72-6.48Q114.72-5.28 115.66-4.58Q116.60-3.88 118.24-3.88L118.24-3.88Z M141.56-21.96L141.56-21.04L147.08-21.04L147.08-16.24L141.72-16.24L141.72 0L135.48 0L135.48-16.24L132.16-16.24L132.16-21.04L135.48-21.04L135.48-22Q135.48-25.68 137.66-27.84Q139.84-30 143.80-30L143.80-30Q145.20-30 146.46-29.70Q147.72-29.40 148.56-28.84L148.56-28.84L146.92-24.32Q145.84-25.08 144.40-25.08L144.40-25.08Q141.56-25.08 141.56-21.96L141.56-21.96ZM150.20 0L150.20-29.68L156.44-29.68L156.44 0L150.20 0Z M172.48 0.32Q169.08 0.32 166.38-1.10Q163.68-2.52 162.16-5.04Q160.64-7.56 160.64-10.76L160.64-10.76Q160.64-13.96 162.16-16.48Q163.68-19 166.38-20.42Q169.08-21.84 172.48-21.84L172.48-21.84Q175.88-21.84 178.56-20.42Q181.24-19 182.76-16.48Q184.28-13.96 184.28-10.76L184.28-10.76Q184.28-7.56 182.76-5.04Q181.24-2.52 178.56-1.10Q175.88 0.32 172.48 0.32L172.48 0.32ZM172.48-4.80Q174.88-4.80 176.42-6.42Q177.96-8.04 177.96-10.76L177.96-10.76Q177.96-13.48 176.42-15.10Q174.88-16.72 172.48-16.72L172.48-16.72Q170.08-16.72 168.52-15.10Q166.96-13.48 166.96-10.76L166.96-10.76Q166.96-8.04 168.52-6.42Q170.08-4.80 172.48-4.80L172.48-4.80Z M216.88-21.52L222.40-21.52L214.60 0L208.60 0L203.76-13.36L198.76 0L192.76 0L185-21.52L190.88-21.52L195.96-6.96L201.24-21.52L206.52-21.52L211.64-6.96L216.88-21.52Z"/></g>
</svg>
</g><g opacity="1" transform="rotate(0 158.316 227.6528)">
<svg width="4" height="104" x="158.316" y="227.6528" version="1.1" preserveAspectRatio="none" viewBox="0 0 4 104">
  <defs><rect x="0" y="0" width="4" height="104" rx="0px" ry="0px" id="id-tBXipXk0b1698989526810"></rect></defs><use class="companyName shapeStroke-str" style="stroke-width:0;" xlink:href="#id-tBXipXk0b1698989526810"></use>
</svg>
</g></svg></svg>