<svg version="1.1" preserveAspectRatio="none" xmlns="http://www.w3.org/2000/svg" width="500" height="500" viewBox="0 0 500 500"><rect width="100%" height="100%" fill="#012B28" fill-opacity="1"/><svg viewBox="441.107 302.2588 378.08 188.5539" width="333" height="166.07185965933135" x="83.5px" y="166.9641px" xmlns="http://www.w3.org/2000/svg" xmlns:xlink="http://www.w3.org/1999/xlink" preserveAspectRatio="none"><defs></defs><style>.companyName {fill:#EBB42C;fill-opacity:1;}.icon2 {fill:#E7240E;fill-opacity:1;}.icon3 {fill:#B47049;fill-opacity:1;}.icon3-str {stroke:#B47049;stroke-opacity:1;}</style><g opacity="1" transform="rotate(0 441.107 462.8127)">
<svg width="378.08" height="28" x="441.107" y="462.8127" version="1.1" preserveAspectRatio="none" viewBox="4.8 -28.48 391.04 28.96">
  <g transform="matrix(1 0 0 1 0 0)" class="companyName"><path id="id-D6z1nYkh9" d="M20.36-3.96L7.52-28L4.80-28L4.80 0L6.56 0L6.56-22.84L6.72-22.84L19.08 0.48L19.80 0.48L32.44-22.68L32.60-22.68L32.60 0L36.24 0L36.24-28L33.48-28L20.52-3.96L20.36-3.96Z M59.04-14L59.04-14Q59.04-11.76 59.90-9.22Q60.76-6.68 62.60-4.52Q64.44-2.36 67.28-0.94Q70.12 0.48 74.08 0.48L74.08 0.48Q76.76 0.48 78.94-0.18Q81.12-0.84 82.86-1.96Q84.60-3.08 85.88-4.54Q87.16-6 87.98-7.62Q88.80-9.24 89.22-10.88Q89.64-12.52 89.64-14L89.64-14Q89.64-16.24 88.72-18.78Q87.80-21.32 85.88-23.48Q83.96-25.64 81.02-27.06Q78.08-28.48 74.08-28.48L74.08-28.48Q70.12-28.48 67.28-27.08Q64.44-25.68 62.60-23.54Q60.76-21.40 59.90-18.84Q59.04-16.28 59.04-14ZM62.96-14L62.96-14Q62.96-16.80 63.82-19.14Q64.68-21.48 66.18-23.16Q67.68-24.84 69.72-25.78Q71.76-26.72 74.16-26.72L74.16-26.72Q76.52-26.72 78.62-25.78Q80.72-24.84 82.30-23.16Q83.88-21.48 84.80-19.14Q85.72-16.80 85.72-14L85.72-14Q85.72-11.20 84.80-8.86Q83.88-6.52 82.30-4.84Q80.72-3.16 78.62-2.22Q76.52-1.28 74.16-1.28L74.16-1.28Q71.76-1.28 69.72-2.22Q67.68-3.16 66.18-4.84Q64.68-6.52 63.82-8.86Q62.96-11.20 62.96-14Z M113.16-28L108.84-28L120.56 0L122.96 0L134.32-28L132.24-28L122.92-4.96L122.76-4.96L113.16-28Z M161.56-28L157.92-28L157.92 0L161.56 0L161.56-28Z M206.84-28L188.76-28L188.76 0L206.84 0L206.84-2.20L192.40-2.20L192.40-13.92L204.80-13.92L204.80-15.76L192.40-15.76L192.40-25.80L206.84-25.80L206.84-28Z M246.92-28L228.84-28L228.84 0L232.48 0L232.48-13.92L244.88-13.92L244.88-15.76L232.48-15.76L232.48-25.80L246.92-25.80L246.92-28Z M287 0L268.92 0L268.92-28L272.56-28L272.56-2.20L287-2.20L287 0Z M306.20-14L306.20-14Q306.20-11.76 307.06-9.22Q307.92-6.68 309.76-4.52Q311.60-2.36 314.44-0.94Q317.28 0.48 321.24 0.48L321.24 0.48Q323.92 0.48 326.10-0.18Q328.28-0.84 330.02-1.96Q331.76-3.08 333.04-4.54Q334.32-6 335.14-7.62Q335.96-9.24 336.38-10.88Q336.80-12.52 336.80-14L336.80-14Q336.80-16.24 335.88-18.78Q334.96-21.32 333.04-23.48Q331.12-25.64 328.18-27.06Q325.24-28.48 321.24-28.48L321.24-28.48Q317.28-28.48 314.44-27.08Q311.60-25.68 309.76-23.54Q307.92-21.40 307.06-18.84Q306.20-16.28 306.20-14ZM310.12-14L310.12-14Q310.12-16.80 310.98-19.14Q311.84-21.48 313.34-23.16Q314.84-24.84 316.88-25.78Q318.92-26.72 321.32-26.72L321.32-26.72Q323.68-26.72 325.78-25.78Q327.88-24.84 329.46-23.16Q331.04-21.48 331.96-19.14Q332.88-16.80 332.88-14L332.88-14Q332.88-11.20 331.96-8.86Q331.04-6.52 329.46-4.84Q327.88-3.16 325.78-2.22Q323.68-1.28 321.32-1.28L321.32-1.28Q318.92-1.28 316.88-2.22Q314.84-3.16 313.34-4.84Q311.84-6.52 310.98-8.86Q310.12-11.20 310.12-14Z M359.68-28L356-28L365.92 0L368.32 0L375.96-21.88L376.16-21.88L383.56 0L385.92 0L395.84-28L394-28L385.72-4.64L385.56-4.64L377.76-28L376.04-28L368.08-4.76L367.92-4.76L359.68-28Z"/></g>
</svg>
</g><g opacity="1" transform="rotate(0 580.147 302.2588)">
<svg width="100" height="100.5539" x="580.147" y="302.2588" version="1.1" preserveAspectRatio="none" viewBox="4363 4220 51275 51559">
  <g transform="matrix(1 0 0 1 0 0)" class="companyName"><defs></defs><g><path class="fil0" d="M25723 4220l8356 0c130,0 246,58 324,148l21108 20995c84,83 126,193 126,303l1 0 0 8469c0,72 -18,139 -49,199l0 0c-2,3 -3,6 -5,9l0 1 0 0 0 0c-1,2 -3,5 -4,7l-1 2 -4 7 -2 3 -4 6 -2 3 -4 6 -2 3 -5 7 -1 2 -5 7 -2 2 -5 7 -1 1c-4,5 -9,11 -14,16l0 0c-10,11 -20,21 -31,31l0 0 -3 2 -20641 21193c-84,86 -195,129 -306,129l0 1 -8852 0c-130,0 -246,-58 -325,-149l-20882 -20911c-83,-83 -124,-192 -124,-301l-1 0 0 -8639c0,-129 57,-245 148,-324l20911 -21108c83,-84 193,-126 303,-126l0 -1zm17175 25396c3,3 6,6 9,9l4392 4436c166,167 166,438 -2,604l-20559 20258 7630 0 20242 -20783 -20469 -20469 -3474 3592 12231 12353zm-296 915l-16373 16930c-164,170 -434,175 -604,12 -4,-4 -8,-8 -11,-11l-20396 -20642 0 7423 20479 20506 20694 -20391 -3789 -3827zm-37212 -4752l20527 20775 3652 -3776 -12299 -12278c-3,-3 -6,-6 -8,-8l-4158 -4151c-170,-164 -175,-434 -12,-604l19977 -20662 -7171 0 -20509 20703zm24773 16385l11838 -12240 -11928 -12047 -11905 12312 11996 11975zm-12600 -12579l16265 -16821c164,-170 434,-175 604,-12l6 6 1 -1 20343 20343 0 -7259 -20697 -20586 -20085 20772 3563 3557z"></path></g></g>
</svg>
</g></svg></svg>