<svg version="1.1" preserveAspectRatio="none" xmlns="http://www.w3.org/2000/svg" width="500" height="500" viewBox="0 0 500 500"><rect width="100%" height="100%" fill="#212D94" fill-opacity="1"/><svg viewBox="27.5516 188.1076 475.4301 180" width="333" height="126.07531580352192" x="83.5px" y="186.9623px" xmlns="http://www.w3.org/2000/svg" xmlns:xlink="http://www.w3.org/1999/xlink" preserveAspectRatio="none"><defs></defs><style>.a60p5ZquTEfillColor {fill:#F1F1F1;fill-opacity:0;}.ahs7pIl34ofillColor {fill:#0A0A0A;fill-opacity:0.1;}.background {fill:#212D94;fill-opacity:1;}.companyName {fill:#F1F1F1;fill-opacity:1;}.icon3-str {stroke:#0A0A0A;stroke-opacity:1;}.shapeStroke-str {stroke:#0A0A0A;stroke-opacity:1;}.text-str {stroke:#F1F1F1;stroke-opacity:1;}</style><g opacity="1" transform="rotate(0 27.5516 188.1076)">
<svg width="237.7151" height="180" x="27.5516" y="188.1076" version="1.1" preserveAspectRatio="none" viewBox="0 0 237.7151 180">
  <defs><rect x="11.25" y="11.25" width="215.2151" height="157.5" rx="0px" ry="0px" id="id-60p5ZquTE1698989448956"></rect></defs><use class="a60p5ZquTEfillColor text-str" style="stroke-width:22.5;" xlink:href="#id-60p5ZquTE1698989448956"></use>
</svg>
</g><g opacity="1" transform="rotate(0 265.2667 188.1076)">
<svg width="237.715" height="180" x="265.2667" y="188.1076" version="1.1" preserveAspectRatio="none" viewBox="0 0 237.715 180">
  <defs><rect x="11.25" y="11.25" width="215.215" height="157.5" rx="0px" ry="0px" id="id-hs7pIl34o1698989448957"></rect></defs><use class="ahs7pIl34ofillColor icon3-str" style="stroke-width:22.5;" xlink:href="#id-hs7pIl34o1698989448957"></use>
</svg>
</g><g opacity="1" transform="rotate(0 37.5516 198.1076)">
<svg width="455.4301" height="160" x="37.5516" y="198.1076" version="1.1" preserveAspectRatio="none" viewBox="0 0 455.4301 160">
  <defs><rect x="0" y="0" width="455.4301" height="160" rx="0px" ry="0px" id="id-BO9lbzKc31698989448957"></rect></defs><use class="background shapeStroke-str" style="stroke-width:0;" xlink:href="#id-BO9lbzKc31698989448957"></use>
</svg>
</g><g opacity="1" transform="rotate(0 77.5516 248.1076)">
<svg width="375.4301" height="60" x="77.5516" y="248.1076" version="1.1" preserveAspectRatio="none" viewBox="3.08 -31.2 201.48 32.2">
  <g transform="matrix(1 0 0 1 0 0)" class="companyName"><path id="id-D6z1nYkh9" d="M25.04-17.68Q27.52-17.68 28.98-16.28Q30.44-14.88 30.52-12.60L30.52-12.60L30.52 0L26.08 0L26.08-10.88Q26-12.24 25.48-12.98Q24.96-13.72 23.76-13.80L23.76-13.80Q21.68-13.80 20.40-11.94Q19.12-10.08 19.08-7.60L19.08-7.60L19.08 0L14.56 0L14.56-10.88Q14.48-12.20 13.94-12.96Q13.40-13.72 12.16-13.80L12.16-13.80Q10.80-13.80 9.76-12.92Q8.72-12.04 8.14-10.60Q7.56-9.16 7.56-7.60L7.56-7.60L7.56 0L3.08 0L3.08-16.92L7.12-16.92L7.48-13.96Q8.44-15.76 10.08-16.72Q11.72-17.68 13.84-17.68L13.84-17.68Q15.88-17.68 17.26-16.78Q18.64-15.88 19.08-14.20L19.08-14.20Q20.12-15.84 21.72-16.76Q23.32-17.68 25.04-17.68L25.04-17.68Z M46.84-3.40Q48.72-3.40 50.64-4.72L50.64-4.72L52.68-1.40Q51.32-0.56 49.76-0.06Q48.20 0.44 46.76 0.44L46.76 0.44Q43.84 0.44 41.70-0.72Q39.56-1.88 38.42-3.92Q37.28-5.96 37.28-8.60L37.28-8.60Q37.28-11.08 38.56-13.16Q39.84-15.24 42.04-16.46Q44.24-17.68 46.84-17.68L46.84-17.68Q50.28-17.68 52.56-15.66Q54.84-13.64 55.60-9.96L55.60-9.96L42.56-5.56Q43.24-4.52 44.36-3.96Q45.48-3.40 46.84-3.40L46.84-3.40ZM46.48-14.16Q44.36-14.16 43.02-12.68Q41.68-11.20 41.68-8.84L41.68-8.84Q41.68-8.40 41.72-8.16L41.72-8.16L50.60-11.32Q50.08-12.56 49.08-13.36Q48.08-14.16 46.48-14.16L46.48-14.16Z M75.60-31.20L80.04-31.20L80.04 0L75.56 0L75.56-2.28Q72.76 0.44 68.92 0.44L68.92 0.44Q66.56 0.44 64.66-0.68Q62.76-1.80 61.68-3.88Q60.60-5.96 60.60-8.72L60.60-8.72Q60.60-11.48 61.74-13.52Q62.88-15.56 64.90-16.62Q66.92-17.68 69.48-17.68L69.48-17.68Q71.32-17.68 72.96-16.98Q74.60-16.28 75.60-15.08L75.60-15.08L75.60-31.20ZM70.36-3.36Q72.28-3.36 73.64-4.32Q75-5.28 75.56-7L75.56-7L75.56-10.60Q75.08-12.16 73.66-13.16Q72.24-14.16 70.36-14.16L70.36-14.16Q68.96-14.16 67.76-13.46Q66.56-12.76 65.84-11.54Q65.12-10.32 65.12-8.80L65.12-8.80Q65.12-7.28 65.84-6.04Q66.56-4.80 67.76-4.08Q68.96-3.36 70.36-3.36L70.36-3.36Z M88.20-16.92L92.68-16.92L92.68 0L88.20 0L88.20-16.92ZM88-22.96Q88-23.96 88.80-24.66Q89.60-25.36 90.60-25.36L90.60-25.36Q91.56-25.36 92.34-24.66Q93.12-23.96 93.12-22.96L93.12-22.96Q93.12-21.96 92.34-21.28Q91.56-20.60 90.60-20.60L90.60-20.60Q89.60-20.60 88.80-21.28Q88-21.96 88-22.96L88-22.96Z M114.44-16.92L118.56-16.92L118.56 0L114.08 0L114.08-2.44Q113.16-1.36 111.60-0.46Q110.04 0.44 107.96 0.44L107.96 0.44Q105.52 0.44 103.60-0.58Q101.68-1.60 100.56-3.60Q99.44-5.60 99.44-8.44L99.44-8.44Q99.44-11.20 100.60-13.30Q101.76-15.40 103.70-16.54Q105.64-17.68 107.96-17.68L107.96-17.68Q112.08-17.68 114.12-14.64L114.12-14.64L114.44-16.92ZM109.20-3.24Q111.04-3.24 112.30-4.18Q113.56-5.12 114.08-6.84L114.08-6.84L114.08-10.52Q113.60-12.08 112.22-13.04Q110.84-14 109.04-14L109.04-14Q106.92-14 105.44-12.50Q103.96-11 103.96-8.68L103.96-8.68Q103.96-7.16 104.68-5.92Q105.40-4.68 106.60-3.96Q107.80-3.24 109.20-3.24L109.20-3.24Z M128.24 0L128.24-13L125.36-13L125.36-16.96L128.24-16.96L128.24-23.60Q128.24-27.16 130.04-29.16Q131.84-31.16 135.20-31.16L135.20-31.16Q136.20-31.16 137.36-30.86Q138.52-30.56 139.36-30L139.36-30L137.48-26.76Q136.80-27.48 135.68-27.48L135.68-27.48Q132.72-27.48 132.72-23.48L132.72-23.48L132.72-16.96L138-16.96L138-13L132.72-13L132.72 0L128.24 0Z M144.84-31.20L149.32-31.20L149.32 0L144.84 0L144.84-31.20Z M156.08-8.64Q156.08-11.16 157.30-13.24Q158.52-15.32 160.68-16.50Q162.84-17.68 165.60-17.68L165.60-17.68Q168.36-17.68 170.50-16.50Q172.64-15.32 173.80-13.26Q174.96-11.20 174.96-8.64L174.96-8.64Q174.96-6.08 173.80-4.02Q172.64-1.96 170.50-0.76Q168.36 0.44 165.56 0.44L165.56 0.44Q162.84 0.44 160.68-0.66Q158.52-1.76 157.30-3.82Q156.08-5.88 156.08-8.64L156.08-8.64ZM160.60-8.60Q160.60-6.32 162.00-4.78Q163.40-3.24 165.48-3.24L165.48-3.24Q167.64-3.24 169.02-4.76Q170.40-6.28 170.40-8.60L170.40-8.60Q170.40-10.92 169.02-12.46Q167.64-14 165.48-14L165.48-14Q163.40-14 162.00-12.42Q160.60-10.84 160.60-8.60L160.60-8.60Z M200.16-16.92L204.56-16.92L196.84 1L191.40-10.44L186.44 1L178.64-16.92L183.04-16.92L186.96-7.92L189.80-14.40L188.64-16.92L192.52-16.92L196.52-7.64L200.16-16.92Z"/></g>
</svg>
</g></svg></svg>